<svg fill="none" height="24" width="24" xmlns="http://www.w3.org/2000/svg"><g fill="#E5820A"><path d="m21.9 4.51-2.23-4.18h-15.28l-2.25 4.24 3.49 6.58a8 8 0 1 0 12.74.01zm-1.52 0-2.98 5.59s-.01-.02-.02-.02a7.994 7.994 0 0 0 -1.99-1.33l3.62-6.8zm-6.27 3.77a8.09 8.09 0 0 0 -4.22 0l-1.67-3.13h7.56zm3.52-6.61-1.14 2.13h-8.98l-1.14-2.13zm-13.96 2.9 1.36-2.56 3.59 6.74c-.73.34-1.405.788-2 1.33-.01 0-.02.02-.02.02zm15 11.43a6.67 6.67 0 1 1 -11.25-4.85 6.6 6.6 0 0 1 3.12-1.65 6.354 6.354 0 0 1 2.92 0 6.606 6.606 0 0 1 3.13 1.66 6.673 6.673 0 0 1 2.08 4.84z"/><path d="m14.21 11.16a5.242 5.242 0 0 0 -1.41-.42 4.603 4.603 0 0 0 -1.6 0c-.486.075-.96.212-1.41.41a5.34 5.34 0 1 0 4.42.01zm-.54 3.64c.004.442-.157.87-.45 1.2.293.33.454.758.45 1.2v.6a1.875 1.875 0 0 1 -3.75 0h1.35a.53.53 0 1 0 1.06 0v-.6a.534.534 0 0 0 -.53-.53h-.8v-1.34h.8a.534.534 0 0 0 .53-.53v-.6a.53.53 0 0 0 -1.06 0h-1.35a1.875 1.875 0 0 1 3.75 0z"/></g></svg>