<svg fill="none" height="24" viewBox="0 0 200 131" width="117" xmlns="http://www.w3.org/2000/svg" xmlns:xlink="http://www.w3.org/1999/xlink">
  <clipPath id="a">
    <path d="m0 0h200v130.327h-200z"/>
  </clipPath>
  <g clip-path="url(//d3nn82uaxijpm6.cloudfront.net/#a)">
    <g fill="#fc5200">
    <path xmlns="http://www.w3.org/2000/svg" d="m19.1616 128.684c-3.8056 0-7.3579-.53-10.64988-1.576-3.29248-1.052-6.12842-2.627-8.51172-4.721l6.67041-7.949c2.02734 1.563 4.16599 2.685 6.40379 3.359 2.2417.677 4.4678 1.015 6.6738 1.015 1.1412 0 1.9561-.144 2.4561-.425.502-.286.7461-.678.7461-1.174v-.107c0-.538-.3687-.988-1.0942-1.337-.7256-.356-2.0928-.727-4.085-1.118-2.0981-.43-4.1016-.931-6.0024-1.498-1.90483-.565-3.57573-1.298-5.01616-2.189-1.44287-.886-2.58935-2.011-3.44531-3.362-.854-1.354-1.28125-3.009-1.28125-4.965v-.106c0-1.781.34619-3.4377 1.04297-4.9661.68799-1.5293 1.7041-2.8667 3.03906-4.0019 1.33545-1.1392 2.99317-2.0274 4.96969-2.6719 1.9678-.6391 4.2383-.9595 6.8042-.9595 3.625 0 6.8008.4292 9.524 1.2852 2.7231.8477 5.167 2.1309 7.3408 3.8374l-6.0835 8.4348c-1.7798-1.284-3.6582-2.217-5.6318-2.806-1.98-.588-3.8316-.8827-5.5796-.8827-.9229 0-1.6075.1426-2.0518.4287-.4526.284-.668.659-.668 1.12v.106c0 .502.3345.929 1.0132 1.286.6792.354 1.9942.729 3.9483 1.12 2.3852.425 4.5542.942 6.5166 1.543 1.9531.611 3.6396 1.382 5.0415 2.327 1.4052.942 2.4941 2.067 3.2568 3.389.7637 1.317 1.1475 2.92 1.1475 4.802v.11c0 1.954-.3902 3.719-1.1763 5.282-.7808 1.568-1.8862 2.891-3.3091 3.979-1.4243 1.083-3.1518 1.918-5.1792 2.506-2.0249.591-4.3066.885-6.8296.885z" fill="#b0b0b0"/>
      <path xmlns="http://www.w3.org/2000/svg" d="m45.9546 101.189h-10.9956v-10.5606h34.4878v10.5606h-10.999v26.796h-12.4932z" fill="#b0b0b0"/>
      <path xmlns="http://www.w3.org/2000/svg" d="m89.0869 108.401c1.4956 0 2.6719-.321 3.5215-.96.854-.642 1.2832-1.535 1.2832-2.673v-.108c0-1.207-.4292-2.108-1.2832-2.69-.8496-.588-2.0117-.88-3.4663-.88h-5.4478v7.311zm-17.8838-17.7726h18.2583c3.3443 0 6.0928.3838 8.2442 1.1485 2.1562.7636 3.8864 1.8066 5.2044 3.1235 1.142 1.1352 1.995 2.4189 2.567 3.8379.566 1.4237.853 3.1017.853 5.0137v.114c0 2.738-.659 5.051-1.979 6.934-1.313 1.886-3.11 3.385-5.391 4.484l8.698 12.701h-14.2488l-7.0474-10.673h-.1015-2.566v10.673h-12.4912z" fill="#b0b0b0"/>
      <path xmlns="http://www.w3.org/2000/svg" d="m123.918 111.914 8.14 16.071h11.97l-20.11-39.6989-20.1 39.6989h11.966z" fill="#b0b0b0"/>
      <path xmlns="http://www.w3.org/2000/svg" d="m151.913 106.699-8.145-16.0706h-11.971l20.116 39.6986 20.102-39.6986h-11.963z" fill="#b0b0b0"/>
      <path xmlns="http://www.w3.org/2000/svg" d="m179.889 111.914 8.143 16.071h11.968l-20.111-39.6989-20.108 39.6989h11.972z" fill="#b0b0b0"/>
    </g>
  </g>
</svg>

