<svg fill="none" height="131" viewBox="0 0 200 131" width="200" xmlns="http://www.w3.org/2000/svg" xmlns:xlink="http://www.w3.org/1999/xlink"><clipPath id="a"><path d="m0 0h200v130.327h-200z"/></clipPath><g clip-path="url(//d3nn82uaxijpm6.cloudfront.net/#a)"><g fill="#fc5200"><path d="m19.1616 40.3979c-3.8056 0-7.3579-.5297-10.64988-1.5756-3.29248-1.0533-6.12842-2.6275-8.51172-4.7212l6.67041-7.9497c2.02734 1.5634 4.16599 2.685 6.40379 3.3593 2.2417.6768 4.4678 1.0152 6.6738 1.0152 1.1412 0 1.9561-.1436 2.4561-.4248.502-.2866.7461-.6787.7461-1.1743v-.1065c0-.5381-.3687-.9888-1.0942-1.3374-.7256-.3564-2.0928-.728-4.085-1.1182-2.0981-.4296-4.1016-.9306-6.0024-1.4985-1.90483-.5644-3.57573-1.2974-5.01616-2.188-1.44287-.8867-2.58935-2.0117-3.44531-3.3623-.854-1.354-1.28125-3.0097-1.28125-4.9648v-.107c0-1.7807.34619-3.437 1.04297-4.96529.68799-1.5293 1.7041-2.8667 3.03906-4.00195 1.33545-1.13965 2.99316-2.02735 4.96969-2.67188 1.9678-.63965 4.2383-.95947 6.8042-.95947 3.625 0 6.8008.42871 9.524 1.28467 2.7231.84814 5.167 2.13085 7.3408 3.83789l-6.0835 8.43503c-1.7798-1.2842-3.6582-2.2173-5.6319-2.8061-1.9799-.5884-3.8315-.8828-5.5795-.8828-.9229 0-1.6075.1425-2.0518.4277-.4526.2847-.668.6602-.668 1.1211v.1055c0 .5019.3345.9292 1.0132 1.2861.6792.354 1.9942.729 3.9483 1.1201 2.3852.4248 4.5542.9419 6.5166 1.5435 1.9531.6108 3.6396 1.3813 5.0415 2.3266 1.4052.9424 2.4941 2.0674 3.2568 3.3882.7637 1.3169 1.1475 2.9204 1.1475 4.8027v.1099c0 1.9541-.3902 3.7197-1.1763 5.2827-.7808 1.5674-1.8862 2.8902-3.3091 3.9785-1.4243 1.0826-3.1518 1.918-5.1792 2.5064-2.0249.5898-4.3066.8847-6.8296.8847z"/><path d="m45.9546 12.9028h-10.9956v-10.56051h34.4878v10.56051h-10.999v26.7959h-12.4932z"/><path d="m89.0869 20.1152c1.4956 0 2.6719-.3213 3.5215-.9604.854-.6416 1.2832-1.5347 1.2832-2.6729v-.1079c0-1.207-.4292-2.1084-1.2832-2.6899-.8496-.5884-2.0117-.8799-3.4663-.8799h-5.4478v7.311zm-17.8838-17.77291h18.2583c3.3443 0 6.0928.38378 8.2442 1.14843 2.1562.76368 3.8864 1.80664 5.2044 3.12354 1.142 1.13525 1.995 2.41894 2.567 3.83744.566 1.4238.853 3.102.853 5.0141v.1138c0 2.7373-.659 5.0508-1.979 6.9346-1.313 1.8852-3.11 3.3847-5.391 4.4829l8.698 12.7016h-14.2488l-7.0474-10.6733h-.1015-2.566v10.6733h-12.4912z"/><path d="m179.889 23.6274 8.143 16.0713h11.968l-20.111-39.6987-20.108 39.6987h11.972z"/><path d="m123.918 23.6274 8.14 16.0713h11.97l-20.11-39.6987-20.1 39.6987h11.966z"/><path d="m151.913 18.4126-8.145-16.07031h-11.971l20.116 39.69871 20.102-39.69871h-11.963z"/></g><path d="m19.1616 84.541c-3.8056 0-7.3579-.5298-10.64988-1.5757-3.29248-1.0527-6.12842-2.6274-8.51172-4.7212l6.67041-7.9497c2.02734 1.5635 4.16599 2.6851 6.40379 3.3594 2.2417.6768 4.4678 1.0151 6.6738 1.0151 1.1412 0 1.9561-.1435 2.4561-.4248.502-.2861.7461-.6782.7461-1.1743v-.1064c0-.5381-.3687-.9888-1.0942-1.3374-.7256-.3565-2.0928-.7281-4.085-1.1177-2.0981-.4302-4.1016-.9312-6.0024-1.4985-1.90483-.5645-3.57573-1.2974-5.01616-2.1885-1.44287-.8867-2.58935-2.0117-3.44531-3.3623-.85401-1.354-1.28125-3.0098-1.28125-4.9649v-.1069c0-1.7808.34619-3.437 1.04297-4.9653.68799-1.5293 1.7041-2.8667 3.03906-4.002 1.33545-1.1391 2.99316-2.0273 4.96969-2.6719 1.9678-.6391 4.2383-.9594 6.8042-.9594 3.625 0 6.8008.4287 9.524 1.2851 2.7231.8477 5.167 2.1304 7.3408 3.8374l-6.0835 8.4351c-1.7798-1.2842-3.6582-2.2173-5.6319-2.8062-1.9799-.5883-3.8315-.8828-5.5795-.8828-.9229 0-1.6075.1426-2.0518.4282-.4526.2842-.668.6597-.668 1.1207v.1059c0 .5015.3345.9287 1.0132 1.2857.6792.3544 1.9942.729 3.9483 1.1201 2.3852.4248 4.5542.9419 6.5166 1.5434 1.9531.6109 3.6396 1.3819 5.0415 2.3272 1.4052.9419 2.4941 2.0669 3.2568 3.3877.7637 1.3169 1.1475 2.9204 1.1475 4.8027v.1099c0 1.9541-.3902 3.7197-1.1763 5.2827-.7808 1.5674-1.8862 2.8906-3.3091 3.9785-1.4243 1.0825-3.1518 1.918-5.1792 2.5063-2.0249.5904-4.3066.8848-6.8296.8848z" fill="#fff"/><path d="m45.9546 57.0459h-10.9956v-10.5605h34.4878v10.5605h-10.999v26.7959h-12.4932z" fill="#fff"/><path d="m89.0869 64.2583c1.4956 0 2.6719-.3213 3.5215-.9604.854-.6417 1.2832-1.5347 1.2832-2.6729v-.1079c0-1.207-.4292-2.1079-1.2832-2.69-.8496-.5883-2.0117-.8798-3.4663-.8798h-5.4478v7.311zm-17.8838-17.7729h18.2583c3.3443 0 6.0928.3837 8.2442 1.1484 2.1562.7637 3.8864 1.8066 5.2044 3.1235 1.142 1.1353 1.995 2.419 2.567 3.8374.566 1.4239.853 3.1021.853 5.0142v.1138c0 2.7373-.659 5.0507-1.979 6.9345-1.313 1.8853-3.11 3.3848-5.391 4.4829l8.698 12.7017h-14.2488l-7.0474-10.6733h-.1015-2.566v10.6733h-12.4912z" fill="#fff"/><path d="m179.889 67.7705 8.143 16.0713h11.968l-20.111-39.6987-20.108 39.6987h11.972z" fill="#fff"/><path d="m123.918 67.7705 8.14 16.0713h11.97l-20.11-39.6987-20.1 39.6987h11.966z" fill="#fff"/><path d="m151.913 62.5557-8.145-16.0703h-11.971l20.116 39.6987 20.102-39.6987h-11.963z" fill="#fff"/><path d="m19.1616 128.684c-3.8056 0-7.3579-.53-10.64988-1.576-3.29248-1.052-6.12842-2.627-8.51172-4.721l6.67041-7.949c2.02734 1.563 4.16599 2.685 6.40379 3.359 2.2417.677 4.4678 1.015 6.6738 1.015 1.1412 0 1.9561-.144 2.4561-.425.502-.286.7461-.678.7461-1.174v-.107c0-.538-.3687-.988-1.0942-1.337-.7256-.356-2.0928-.727-4.085-1.118-2.0981-.43-4.1016-.931-6.0024-1.498-1.90483-.565-3.57573-1.298-5.01616-2.189-1.44287-.886-2.58935-2.011-3.44531-3.362-.854-1.354-1.28125-3.009-1.28125-4.965v-.106c0-1.781.34619-3.4377 1.04297-4.9661.68799-1.5293 1.7041-2.8667 3.03906-4.0019 1.33545-1.1392 2.99317-2.0274 4.96969-2.6719 1.9678-.6391 4.2383-.9595 6.8042-.9595 3.625 0 6.8008.4292 9.524 1.2852 2.7231.8477 5.167 2.1309 7.3408 3.8374l-6.0835 8.4348c-1.7798-1.284-3.6582-2.217-5.6318-2.806-1.98-.588-3.8316-.8827-5.5796-.8827-.9229 0-1.6075.1426-2.0518.4287-.4526.284-.668.659-.668 1.12v.106c0 .502.3345.929 1.0132 1.286.6792.354 1.9942.729 3.9483 1.12 2.3852.425 4.5542.942 6.5166 1.543 1.9531.611 3.6396 1.382 5.0415 2.327 1.4052.942 2.4941 2.067 3.2568 3.389.7637 1.317 1.1475 2.92 1.1475 4.802v.11c0 1.954-.3902 3.719-1.1763 5.282-.7808 1.568-1.8862 2.891-3.3091 3.979-1.4243 1.083-3.1518 1.918-5.1792 2.506-2.0249.591-4.3066.885-6.8296.885z" fill="#b0b0b0"/><path d="m45.9546 101.189h-10.9956v-10.5606h34.4878v10.5606h-10.999v26.796h-12.4932z" fill="#b0b0b0"/><path d="m89.0869 108.401c1.4956 0 2.6719-.321 3.5215-.96.854-.642 1.2832-1.535 1.2832-2.673v-.108c0-1.207-.4292-2.108-1.2832-2.69-.8496-.588-2.0117-.88-3.4663-.88h-5.4478v7.311zm-17.8838-17.7726h18.2583c3.3443 0 6.0928.3838 8.2442 1.1485 2.1562.7636 3.8864 1.8066 5.2044 3.1235 1.142 1.1352 1.995 2.4189 2.567 3.8379.566 1.4237.853 3.1017.853 5.0137v.114c0 2.738-.659 5.051-1.979 6.934-1.313 1.886-3.11 3.385-5.391 4.484l8.698 12.701h-14.2488l-7.0474-10.673h-.1015-2.566v10.673h-12.4912z" fill="#b0b0b0"/><path d="m179.889 111.914 8.143 16.071h11.968l-20.111-39.6989-20.108 39.6989h11.972z" fill="#b0b0b0"/><path d="m123.918 111.914 8.14 16.071h11.97l-20.11-39.6989-20.1 39.6989h11.966z" fill="#b0b0b0"/><path d="m151.913 106.699-8.145-16.0706h-11.971l20.116 39.6986 20.102-39.6986h-11.963z" fill="#b0b0b0"/></g></svg>