<svg width="61" height="13" viewBox="0 0 61 13" fill="none" xmlns="http://www.w3.org/2000/svg">
<mask id="path-1-outside-1_3_7" maskUnits="userSpaceOnUse" x="-1" y="0" width="62" height="13" fill="black">
<rect fill="white" x="-1" width="62" height="13"/>
<path d="M2.392 2.608V5.536H5.688V7.328H2.392V12H0.344V0.848H6.168V2.608H2.392ZM11.3819 12.192C10.3899 12.192 9.54454 11.9573 8.84588 11.488C8.14721 11.0133 7.61921 10.344 7.26187 9.48C6.90454 8.61067 6.72587 7.58933 6.72587 6.416C6.72587 5.25333 6.90187 4.24 7.25387 3.376C7.61121 2.50667 8.13387 1.83733 8.82187 1.368C9.51521 0.893332 10.3525 0.655999 11.3339 0.655999C12.3525 0.655999 13.2112 0.895999 13.9099 1.376C14.6085 1.85067 15.1312 2.52 15.4779 3.384C15.8299 4.248 16.0059 5.25867 16.0059 6.416C16.0059 7.58933 15.8245 8.61067 15.4619 9.48C15.1045 10.344 14.5792 11.0133 13.8859 11.488C13.1925 11.9573 12.3579 12.192 11.3819 12.192ZM11.3819 10.48C11.8565 10.48 12.2805 10.328 12.6539 10.024C13.0325 9.72 13.3312 9.25867 13.5499 8.64C13.7685 8.02133 13.8779 7.264 13.8779 6.368C13.8779 5.05067 13.6539 4.048 13.2059 3.36C12.7632 2.66667 12.1392 2.32 11.3339 2.32C10.5499 2.32 9.94188 2.66667 9.50988 3.36C9.08321 4.048 8.86987 5.056 8.86987 6.384C8.86987 7.29067 8.97121 8.05067 9.17387 8.664C9.38187 9.272 9.67254 9.728 10.0459 10.032C10.4245 10.3307 10.8699 10.48 11.3819 10.48ZM22.5531 12L19.6891 7.968V12H17.6571V0.848H20.7611C23.4065 0.848 24.7291 2.032 24.7291 4.4C24.7291 4.928 24.6438 5.448 24.4731 5.96C24.3025 6.46667 24.0225 6.91733 23.6331 7.312C23.2491 7.70667 22.7558 7.97867 22.1531 8.128L25.0331 12H22.5531ZM20.5371 6.96C20.9905 6.96 21.3771 6.85333 21.6971 6.64C22.0225 6.42133 22.2678 6.13333 22.4331 5.776C22.5985 5.41333 22.6811 5.01867 22.6811 4.592C22.6811 3.856 22.5105 3.31467 22.1691 2.968C21.8331 2.62133 21.2731 2.448 20.4891 2.448H19.6891V6.96H20.5371ZM32.7315 2.656H30.1555V12H28.0915V2.656H25.5155V0.848H32.7315V2.656ZM37.7284 12.208C36.5177 12.208 35.5524 11.8853 34.8324 11.24C34.1177 10.5893 33.7604 9.51467 33.7604 8.016V0.848H35.8404V8.24C35.8404 9.08267 36.0244 9.664 36.3924 9.984C36.7657 10.304 37.2004 10.464 37.6964 10.464C38.1977 10.464 38.6244 10.3067 38.9764 9.992C39.3284 9.67733 39.5044 9.09333 39.5044 8.24V0.848H41.5844V8.016C41.5844 9.51467 41.235 10.5893 40.5364 11.24C39.8377 11.8853 38.9017 12.208 37.7284 12.208ZM51.5539 0.848V12.224H51.3939L46.0499 6.128L45.5539 5.488L45.6339 7.04V12H43.6659V0.655999H43.8419L49.1059 6.8L49.6659 7.528L49.5859 6V0.848H51.5539ZM60.02 10.192V12H53.876V0.848H59.7V2.592H55.876V5.2H58.916V6.896H55.876V10.192H60.02Z"/>
</mask>
<path d="M2.392 2.608V5.536H5.688V7.328H2.392V12H0.344V0.848H6.168V2.608H2.392ZM11.3819 12.192C10.3899 12.192 9.54454 11.9573 8.84588 11.488C8.14721 11.0133 7.61921 10.344 7.26187 9.48C6.90454 8.61067 6.72587 7.58933 6.72587 6.416C6.72587 5.25333 6.90187 4.24 7.25387 3.376C7.61121 2.50667 8.13387 1.83733 8.82187 1.368C9.51521 0.893332 10.3525 0.655999 11.3339 0.655999C12.3525 0.655999 13.2112 0.895999 13.9099 1.376C14.6085 1.85067 15.1312 2.52 15.4779 3.384C15.8299 4.248 16.0059 5.25867 16.0059 6.416C16.0059 7.58933 15.8245 8.61067 15.4619 9.48C15.1045 10.344 14.5792 11.0133 13.8859 11.488C13.1925 11.9573 12.3579 12.192 11.3819 12.192ZM11.3819 10.48C11.8565 10.48 12.2805 10.328 12.6539 10.024C13.0325 9.72 13.3312 9.25867 13.5499 8.64C13.7685 8.02133 13.8779 7.264 13.8779 6.368C13.8779 5.05067 13.6539 4.048 13.2059 3.36C12.7632 2.66667 12.1392 2.32 11.3339 2.32C10.5499 2.32 9.94188 2.66667 9.50988 3.36C9.08321 4.048 8.86987 5.056 8.86987 6.384C8.86987 7.29067 8.97121 8.05067 9.17387 8.664C9.38187 9.272 9.67254 9.728 10.0459 10.032C10.4245 10.3307 10.8699 10.48 11.3819 10.48ZM22.5531 12L19.6891 7.968V12H17.6571V0.848H20.7611C23.4065 0.848 24.7291 2.032 24.7291 4.4C24.7291 4.928 24.6438 5.448 24.4731 5.96C24.3025 6.46667 24.0225 6.91733 23.6331 7.312C23.2491 7.70667 22.7558 7.97867 22.1531 8.128L25.0331 12H22.5531ZM20.5371 6.96C20.9905 6.96 21.3771 6.85333 21.6971 6.64C22.0225 6.42133 22.2678 6.13333 22.4331 5.776C22.5985 5.41333 22.6811 5.01867 22.6811 4.592C22.6811 3.856 22.5105 3.31467 22.1691 2.968C21.8331 2.62133 21.2731 2.448 20.4891 2.448H19.6891V6.96H20.5371ZM32.7315 2.656H30.1555V12H28.0915V2.656H25.5155V0.848H32.7315V2.656ZM37.7284 12.208C36.5177 12.208 35.5524 11.8853 34.8324 11.24C34.1177 10.5893 33.7604 9.51467 33.7604 8.016V0.848H35.8404V8.24C35.8404 9.08267 36.0244 9.664 36.3924 9.984C36.7657 10.304 37.2004 10.464 37.6964 10.464C38.1977 10.464 38.6244 10.3067 38.9764 9.992C39.3284 9.67733 39.5044 9.09333 39.5044 8.24V0.848H41.5844V8.016C41.5844 9.51467 41.235 10.5893 40.5364 11.24C39.8377 11.8853 38.9017 12.208 37.7284 12.208ZM51.5539 0.848V12.224H51.3939L46.0499 6.128L45.5539 5.488L45.6339 7.04V12H43.6659V0.655999H43.8419L49.1059 6.8L49.6659 7.528L49.5859 6V0.848H51.5539ZM60.02 10.192V12H53.876V0.848H59.7V2.592H55.876V5.2H58.916V6.896H55.876V10.192H60.02Z" fill="#FC5200"/>
<path d="M2.392 2.608V2.108H1.892V2.608H2.392ZM2.392 5.536H1.892V6.036H2.392V5.536ZM5.688 5.536H6.188V5.036H5.688V5.536ZM5.688 7.328V7.828H6.188V7.328H5.688ZM2.392 7.328V6.828H1.892V7.328H2.392ZM2.392 12V12.5H2.892V12H2.392ZM0.344 12H-0.156V12.5H0.344V12ZM0.344 0.848V0.348H-0.156V0.848H0.344ZM6.168 0.848H6.668V0.348H6.168V0.848ZM6.168 2.608V3.108H6.668V2.608H6.168ZM1.892 2.608V5.536H2.892V2.608H1.892ZM2.392 6.036H5.688V5.036H2.392V6.036ZM5.188 5.536V7.328H6.188V5.536H5.188ZM5.688 6.828H2.392V7.828H5.688V6.828ZM1.892 7.328V12H2.892V7.328H1.892ZM2.392 11.5H0.344V12.5H2.392V11.5ZM0.844 12V0.848H-0.156V12H0.844ZM0.344 1.348H6.168V0.348H0.344V1.348ZM5.668 0.848V2.608H6.668V0.848H5.668ZM6.168 2.108H2.392V3.108H6.168V2.108ZM8.84588 11.488L8.56489 11.9016L8.56706 11.903L8.84588 11.488ZM7.26187 9.48L6.79942 9.67009L6.79983 9.67109L7.26187 9.48ZM7.25387 3.376L6.79142 3.18591L6.79083 3.18735L7.25387 3.376ZM8.82187 1.368L9.10364 1.78105L9.10433 1.78057L8.82187 1.368ZM13.9099 1.376L13.6267 1.78812L13.6289 1.78958L13.9099 1.376ZM15.4779 3.384L15.0138 3.57019L15.0148 3.57265L15.4779 3.384ZM15.4619 9.48L15.0004 9.28749L14.9998 9.28891L15.4619 9.48ZM13.8859 11.488L14.1662 11.9021L14.1683 11.9006L13.8859 11.488ZM12.6539 10.024L12.3409 9.63409L12.3382 9.63628L12.6539 10.024ZM13.2059 3.36L12.7844 3.62908L12.7869 3.63284L13.2059 3.36ZM9.50988 3.36L9.08551 3.09559L9.08495 3.09648L9.50988 3.36ZM9.17387 8.664L8.6991 8.82088L8.70079 8.82584L9.17387 8.664ZM10.0459 10.032L9.73012 10.4198L9.73623 10.4246L10.0459 10.032ZM11.3819 11.692C10.4711 11.692 9.72706 11.4776 9.12469 11.073L8.56706 11.903C9.36202 12.4371 10.3087 12.692 11.3819 12.692V11.692ZM9.12686 11.0744C8.5175 10.6604 8.04807 10.0727 7.72392 9.28891L6.79983 9.67109C7.19035 10.6153 7.77691 11.3662 8.56489 11.9016L9.12686 11.0744ZM7.72433 9.28991C7.39711 8.49384 7.22587 7.53977 7.22587 6.416H6.22587C6.22587 7.6389 6.41197 8.7275 6.79942 9.67009L7.72433 9.28991ZM7.22587 6.416C7.22587 5.30263 7.39453 4.35598 7.71692 3.56465L6.79083 3.18735C6.40922 4.12402 6.22587 5.20403 6.22587 6.416H7.22587ZM7.71633 3.56609C8.04145 2.77514 8.50645 2.18843 9.10364 1.78104L8.54011 0.954953C7.7613 1.48623 7.18097 2.2382 6.79142 3.18591L7.71633 3.56609ZM9.10433 1.78057C9.70121 1.37194 10.436 1.156 11.3339 1.156V0.155999C10.2691 0.155999 9.3292 0.414724 8.53942 0.955423L9.10433 1.78057ZM11.3339 1.156C12.2722 1.156 13.027 1.37608 13.6267 1.78811L14.193 0.963887C13.3954 0.415919 12.4329 0.155999 11.3339 0.155999V1.156ZM13.6289 1.78958C14.2369 2.20268 14.7003 2.78868 15.0138 3.57019L15.9419 3.19781C15.5622 2.25132 14.9801 1.49865 14.1909 0.962419L13.6289 1.78958ZM15.0148 3.57265C15.3373 4.36423 15.5059 5.3083 15.5059 6.416H16.5059C16.5059 5.20903 16.3224 4.13177 15.9409 3.19535L15.0148 3.57265ZM15.5059 6.416C15.5059 7.53895 15.3322 8.49214 15.0004 9.28749L15.9233 9.67251C16.3169 8.72919 16.5059 7.63972 16.5059 6.416H15.5059ZM14.9998 9.28891C14.6753 10.0737 14.2078 10.6617 13.6034 11.0754L14.1683 11.9006C14.9506 11.365 15.5338 10.6143 15.9239 9.67109L14.9998 9.28891ZM13.6056 11.0739C13.008 11.4785 12.2749 11.692 11.3819 11.692V12.692C12.4408 12.692 13.3771 12.4362 14.1662 11.9021L13.6056 11.0739ZM11.3819 10.98C11.9733 10.98 12.5085 10.7872 12.9696 10.4117L12.3382 9.63628C12.0526 9.86879 11.7397 9.98 11.3819 9.98V10.98ZM12.9669 10.4139C13.4394 10.0346 13.7822 9.48316 14.0213 8.80662L13.0785 8.47338C12.8802 9.03417 12.6257 9.4054 12.3409 9.6341L12.9669 10.4139ZM14.0213 8.80662C14.2644 8.11885 14.3779 7.30146 14.3779 6.368H13.3779C13.3779 7.22654 13.2727 7.92382 13.0785 8.47338L14.0213 8.80662ZM14.3779 6.368C14.3779 5.00714 14.1488 3.89176 13.6249 3.08716L12.7869 3.63284C13.159 4.20424 13.3779 5.09419 13.3779 6.368H14.3779ZM13.6273 3.09093C13.0952 2.25748 12.3143 1.82 11.3339 1.82V2.82C11.9641 2.82 12.4312 3.07585 12.7844 3.62907L13.6273 3.09093ZM11.3339 1.82C10.3686 1.82 9.60416 2.26319 9.08551 3.09559L9.93424 3.62441C10.2796 3.07014 10.7311 2.82 11.3339 2.82V1.82ZM9.08495 3.09648C8.58708 3.89931 8.36987 5.01646 8.36987 6.384H9.36987C9.36987 5.09554 9.57934 4.19669 9.9348 3.62352L9.08495 3.09648ZM8.36987 6.384C8.36987 7.3242 8.47449 8.14106 8.69912 8.82087L9.64863 8.50712C9.46793 7.96027 9.36987 7.25714 9.36987 6.384H8.36987ZM8.70079 8.82584C8.92921 9.49354 9.26379 10.04 9.73016 10.4197L10.3616 9.64428C10.0813 9.41604 9.83454 9.05046 9.64696 8.50216L8.70079 8.82584ZM9.73623 10.4246C10.2088 10.7973 10.765 10.98 11.3819 10.98V9.98C10.9748 9.98 10.6403 9.86404 10.3555 9.63942L9.73623 10.4246ZM22.5531 12L22.1455 12.2895L22.295 12.5H22.5531V12ZM19.6891 7.968L20.0968 7.67845L19.1891 6.40067V7.968H19.6891ZM19.6891 12V12.5H20.1891V12H19.6891ZM17.6571 12H17.1571V12.5H17.6571V12ZM17.6571 0.848V0.348H17.1571V0.848H17.6571ZM24.4731 5.96L24.947 6.11961L24.9475 6.11811L24.4731 5.96ZM23.6331 7.312L23.2772 6.96085L23.2748 6.96332L23.6331 7.312ZM22.1531 8.128L22.0329 7.64268L21.3034 7.82342L21.7519 8.42641L22.1531 8.128ZM25.0331 12V12.5H26.0282L25.4343 11.7016L25.0331 12ZM21.6971 6.64L21.9745 7.05603L21.976 7.05498L21.6971 6.64ZM22.4331 5.776L22.8869 5.98596L22.8881 5.98341L22.4331 5.776ZM22.1691 2.968L21.8101 3.316L21.8128 3.3188L22.1691 2.968ZM19.6891 2.448V1.948H19.1891V2.448H19.6891ZM19.6891 6.96H19.1891V7.46H19.6891V6.96ZM22.9608 11.7105L20.0968 7.67845L19.2815 8.25755L22.1455 12.2895L22.9608 11.7105ZM19.1891 7.968V12H20.1891V7.968H19.1891ZM19.6891 11.5H17.6571V12.5H19.6891V11.5ZM18.1571 12V0.848H17.1571V12H18.1571ZM17.6571 1.348H20.7611V0.348H17.6571V1.348ZM20.7611 1.348C22.0195 1.348 22.87 1.63082 23.4036 2.10854C23.9268 2.57683 24.2291 3.30827 24.2291 4.4H25.2291C25.2291 3.12372 24.8701 2.07917 24.0706 1.36346C23.2816 0.657179 22.148 0.348 20.7611 0.348V1.348ZM24.2291 4.4C24.2291 4.87306 24.1528 5.33972 23.9988 5.80189L24.9475 6.11811C25.1347 5.55628 25.2291 4.98293 25.2291 4.4H24.2291ZM23.9993 5.80039C23.8538 6.2324 23.6152 6.6182 23.2772 6.96086L23.9891 7.66314C24.4297 7.21647 24.7512 6.70093 24.947 6.11961L23.9993 5.80039ZM23.2748 6.96332C22.9639 7.28287 22.5568 7.51284 22.0329 7.64268L22.2734 8.61332C22.9548 8.44449 23.5344 8.13047 23.9915 7.66068L23.2748 6.96332ZM21.7519 8.42641L24.6319 12.2984L25.4343 11.7016L22.5543 7.82959L21.7519 8.42641ZM25.0331 11.5H22.5531V12.5H25.0331V11.5ZM20.5371 7.46C21.0712 7.46 21.5585 7.33331 21.9745 7.05603L21.4198 6.22397C21.1957 6.37335 20.9098 6.46 20.5371 6.46V7.46ZM21.976 7.05498C22.3777 6.78502 22.6833 6.42596 22.8869 5.98596L21.9793 5.56604C21.8523 5.84071 21.6672 6.05765 21.4182 6.22502L21.976 7.05498ZM22.8881 5.98341C23.0852 5.55111 23.1811 5.0851 23.1811 4.592H22.1811C22.1811 4.95223 22.1118 5.27555 21.9782 5.56859L22.8881 5.98341ZM23.1811 4.592C23.1811 3.79088 22.9967 3.09582 22.5254 2.6172L21.8128 3.3188C22.0243 3.53352 22.1811 3.92112 22.1811 4.592H23.1811ZM22.5282 2.62001C22.0535 2.13028 21.3273 1.948 20.4891 1.948V2.948C21.2189 2.948 21.6128 3.11239 21.8101 3.31599L22.5282 2.62001ZM20.4891 1.948H19.6891V2.948H20.4891V1.948ZM19.1891 2.448V6.96H20.1891V2.448H19.1891ZM19.6891 7.46H20.5371V6.46H19.6891V7.46ZM32.7315 2.656V3.156H33.2315V2.656H32.7315ZM30.1555 2.656V2.156H29.6555V2.656H30.1555ZM30.1555 12V12.5H30.6555V12H30.1555ZM28.0915 12H27.5915V12.5H28.0915V12ZM28.0915 2.656H28.5915V2.156H28.0915V2.656ZM25.5155 2.656H25.0155V3.156H25.5155V2.656ZM25.5155 0.848V0.348H25.0155V0.848H25.5155ZM32.7315 0.848H33.2315V0.348H32.7315V0.848ZM32.7315 2.156H30.1555V3.156H32.7315V2.156ZM29.6555 2.656V12H30.6555V2.656H29.6555ZM30.1555 11.5H28.0915V12.5H30.1555V11.5ZM28.5915 12V2.656H27.5915V12H28.5915ZM28.0915 2.156H25.5155V3.156H28.0915V2.156ZM26.0155 2.656V0.848H25.0155V2.656H26.0155ZM25.5155 1.348H32.7315V0.348H25.5155V1.348ZM32.2315 0.848V2.656H33.2315V0.848H32.2315ZM34.8324 11.24L34.4958 11.6097L34.4987 11.6123L34.8324 11.24ZM33.7604 0.848V0.348H33.2604V0.848H33.7604ZM35.8404 0.848H36.3404V0.348H35.8404V0.848ZM36.3924 9.984L36.0643 10.3613L36.067 10.3636L36.3924 9.984ZM38.9764 9.992L38.6431 9.61923L38.6431 9.61923L38.9764 9.992ZM39.5044 0.848V0.348H39.0044V0.848H39.5044ZM41.5844 0.848H42.0844V0.348H41.5844V0.848ZM40.5364 11.24L40.8756 11.6073L40.8771 11.6059L40.5364 11.24ZM37.7284 11.708C36.6086 11.708 35.7729 11.4115 35.1661 10.8677L34.4987 11.6123C35.3318 12.3591 36.4268 12.708 37.7284 12.708V11.708ZM35.169 10.8703C34.6041 10.3559 34.2604 9.4506 34.2604 8.016H33.2604C33.2604 9.57873 33.6314 10.8227 34.4958 11.6097L35.169 10.8703ZM34.2604 8.016V0.848H33.2604V8.016H34.2604ZM33.7604 1.348H35.8404V0.348H33.7604V1.348ZM35.3404 0.848V8.24H36.3404V0.848H35.3404ZM35.3404 8.24C35.3404 9.12721 35.5292 9.89603 36.0643 10.3613L36.7205 9.6067C36.5195 9.43197 36.3404 9.03812 36.3404 8.24H35.3404ZM36.067 10.3636C36.5318 10.762 37.0822 10.964 37.6964 10.964V9.964C37.3186 9.964 36.9996 9.84595 36.7178 9.60437L36.067 10.3636ZM37.6964 10.964C38.3124 10.964 38.86 10.7667 39.3096 10.3648L38.6431 9.61923C38.3888 9.8466 38.0831 9.964 37.6964 9.964V10.964ZM39.3096 10.3648C39.8273 9.90203 40.0044 9.12912 40.0044 8.24H39.0044C39.0044 9.05755 38.8295 9.45264 38.6431 9.61923L39.3096 10.3648ZM40.0044 8.24V0.848H39.0044V8.24H40.0044ZM39.5044 1.348H41.5844V0.348H39.5044V1.348ZM41.0844 0.848V8.016H42.0844V0.848H41.0844ZM41.0844 8.016C41.0844 9.45344 40.7473 10.3603 40.1956 10.8741L40.8771 11.6059C41.7228 10.8183 42.0844 9.5759 42.0844 8.016H41.0844ZM40.1971 10.8727C39.6112 11.4139 38.8068 11.708 37.7284 11.708V12.708C38.9967 12.708 40.0642 12.3568 40.8756 11.6073L40.1971 10.8727ZM51.5539 0.848H52.0539V0.348H51.5539V0.848ZM51.5539 12.224V12.724H52.0539V12.224H51.5539ZM51.3939 12.224L51.0179 12.5536L51.1673 12.724H51.3939V12.224ZM46.0499 6.128L45.6547 6.43429L45.6639 6.44623L45.6739 6.4576L46.0499 6.128ZM45.5539 5.488L45.9491 5.18171L44.9725 3.92157L45.0545 5.51374L45.5539 5.488ZM45.6339 7.04H46.1339V7.02712L46.1332 7.01426L45.6339 7.04ZM45.6339 12V12.5H46.1339V12H45.6339ZM43.6659 12H43.1659V12.5H43.6659V12ZM43.6659 0.655999V0.155999H43.1659V0.655999H43.6659ZM43.8419 0.655999L44.2216 0.330685L44.0719 0.155999H43.8419V0.655999ZM49.1059 6.8L49.5022 6.49514L49.4942 6.4847L49.4856 6.47469L49.1059 6.8ZM49.6659 7.528L49.2696 7.83286L50.2492 9.10638L50.1652 7.50186L49.6659 7.528ZM49.5859 6H49.0859V6.01308L49.0866 6.02614L49.5859 6ZM49.5859 0.848V0.348H49.0859V0.848H49.5859ZM51.0539 0.848V12.224H52.0539V0.848H51.0539ZM51.5539 11.724H51.3939V12.724H51.5539V11.724ZM51.7699 11.8944L46.4259 5.7984L45.6739 6.4576L51.0179 12.5536L51.7699 11.8944ZM46.4451 5.82171L45.9491 5.18171L45.1587 5.79429L45.6547 6.43429L46.4451 5.82171ZM45.0545 5.51374L45.1345 7.06574L46.1332 7.01426L46.0532 5.46226L45.0545 5.51374ZM45.1339 7.04V12H46.1339V7.04H45.1339ZM45.6339 11.5H43.6659V12.5H45.6339V11.5ZM44.1659 12V0.655999H43.1659V12H44.1659ZM43.6659 1.156H43.8419V0.155999H43.6659V1.156ZM43.4622 0.981313L48.7262 7.12531L49.4856 6.47469L44.2216 0.330685L43.4622 0.981313ZM48.7096 7.10486L49.2696 7.83286L50.0622 7.22314L49.5022 6.49514L48.7096 7.10486ZM50.1652 7.50186L50.0852 5.97386L49.0866 6.02614L49.1666 7.55414L50.1652 7.50186ZM50.0859 6V0.848H49.0859V6H50.0859ZM49.5859 1.348H51.5539V0.348H49.5859V1.348ZM60.02 10.192H60.52V9.692H60.02V10.192ZM60.02 12V12.5H60.52V12H60.02ZM53.876 12H53.376V12.5H53.876V12ZM53.876 0.848V0.348H53.376V0.848H53.876ZM59.7 0.848H60.2V0.348H59.7V0.848ZM59.7 2.592V3.092H60.2V2.592H59.7ZM55.876 2.592V2.092H55.376V2.592H55.876ZM55.876 5.2H55.376V5.7H55.876V5.2ZM58.916 5.2H59.416V4.7H58.916V5.2ZM58.916 6.896V7.396H59.416V6.896H58.916ZM55.876 6.896V6.396H55.376V6.896H55.876ZM55.876 10.192H55.376V10.692H55.876V10.192ZM59.52 10.192V12H60.52V10.192H59.52ZM60.02 11.5H53.876V12.5H60.02V11.5ZM54.376 12V0.848H53.376V12H54.376ZM53.876 1.348H59.7V0.348H53.876V1.348ZM59.2 0.848V2.592H60.2V0.848H59.2ZM59.7 2.092H55.876V3.092H59.7V2.092ZM55.376 2.592V5.2H56.376V2.592H55.376ZM55.876 5.7H58.916V4.7H55.876V5.7ZM58.416 5.2V6.896H59.416V5.2H58.416ZM58.916 6.396H55.876V7.396H58.916V6.396ZM55.376 6.896V10.192H56.376V6.896H55.376ZM55.876 10.692H60.02V9.692H55.876V10.692Z" fill="#FC5200" mask="url(#path-1-outside-1_3_7)"/>
</svg>
