<svg width="90" height="19" viewBox="0 0 90 19" fill="none" xmlns="http://www.w3.org/2000/svg">
<mask id="path-1-outside-1_3_9" maskUnits="userSpaceOnUse" x="-1" y="0" width="92" height="19" fill="black">
<rect fill="white" x="-1" width="92" height="19"/>
<path d="M3.088 3.912V8.304H8.032V10.992H3.088V18H0.0160002V1.272H8.752V3.912H3.088ZM16.5728 18.288C15.0848 18.288 13.8168 17.936 12.7688 17.232C11.7208 16.52 10.9288 15.516 10.3928 14.22C9.85681 12.916 9.58881 11.384 9.58881 9.624C9.58881 7.88 9.85281 6.36 10.3808 5.064C10.9168 3.76 11.7008 2.756 12.7328 2.052C13.7728 1.34 15.0288 0.983999 16.5008 0.983999C18.0288 0.983999 19.3168 1.344 20.3648 2.064C21.4128 2.776 22.1968 3.78 22.7168 5.076C23.2448 6.372 23.5088 7.888 23.5088 9.624C23.5088 11.384 23.2368 12.916 22.6928 14.22C22.1568 15.516 21.3688 16.52 20.3288 17.232C19.2888 17.936 18.0368 18.288 16.5728 18.288ZM16.5728 15.72C17.2848 15.72 17.9208 15.492 18.4808 15.036C19.0488 14.58 19.4968 13.888 19.8248 12.96C20.1528 12.032 20.3168 10.896 20.3168 9.552C20.3168 7.576 19.9808 6.072 19.3088 5.04C18.6448 4 17.7088 3.48 16.5008 3.48C15.3248 3.48 14.4128 4 13.7648 5.04C13.1248 6.072 12.8048 7.584 12.8048 9.576C12.8048 10.936 12.9568 12.076 13.2608 12.996C13.5728 13.908 14.0088 14.592 14.5688 15.048C15.1368 15.496 15.8048 15.72 16.5728 15.72ZM33.3297 18L29.0337 11.952V18H25.9857V1.272H30.6417C34.6097 1.272 36.5937 3.048 36.5937 6.6C36.5937 7.392 36.4657 8.172 36.2097 8.94C35.9537 9.7 35.5337 10.376 34.9497 10.968C34.3737 11.56 33.6337 11.968 32.7297 12.192L37.0497 18H33.3297ZM30.3057 10.44C30.9857 10.44 31.5657 10.28 32.0457 9.96C32.5337 9.632 32.9017 9.2 33.1497 8.664C33.3977 8.12 33.5217 7.528 33.5217 6.888C33.5217 5.784 33.2657 4.972 32.7537 4.452C32.2497 3.932 31.4097 3.672 30.2337 3.672H29.0337V10.44H30.3057ZM48.5973 3.984H44.7333V18H41.6373V3.984H37.7733V1.272H48.5973V3.984ZM56.0926 18.312C54.2766 18.312 52.8286 17.828 51.7486 16.86C50.6766 15.884 50.1406 14.272 50.1406 12.024V1.272H53.2606V12.36C53.2606 13.624 53.5366 14.496 54.0886 14.976C54.6486 15.456 55.3006 15.696 56.0446 15.696C56.7966 15.696 57.4366 15.46 57.9646 14.988C58.4926 14.516 58.7566 13.64 58.7566 12.36V1.272H61.8766V12.024C61.8766 14.272 61.3526 15.884 60.3046 16.86C59.2566 17.828 57.8526 18.312 56.0926 18.312ZM76.8308 1.272V18.336H76.5908L68.5748 9.192L67.8308 8.232L67.9508 10.56V18H64.9988V0.983999H65.2628L73.1588 10.2L73.9988 11.292L73.8788 9V1.272H76.8308ZM89.53 15.288V18H80.314V1.272H89.05V3.888H83.314V7.8H87.874V10.344H83.314V15.288H89.53Z"/>
</mask>
<path d="M3.088 3.912V8.304H8.032V10.992H3.088V18H0.0160002V1.272H8.752V3.912H3.088ZM16.5728 18.288C15.0848 18.288 13.8168 17.936 12.7688 17.232C11.7208 16.52 10.9288 15.516 10.3928 14.22C9.85681 12.916 9.58881 11.384 9.58881 9.624C9.58881 7.88 9.85281 6.36 10.3808 5.064C10.9168 3.76 11.7008 2.756 12.7328 2.052C13.7728 1.34 15.0288 0.983999 16.5008 0.983999C18.0288 0.983999 19.3168 1.344 20.3648 2.064C21.4128 2.776 22.1968 3.78 22.7168 5.076C23.2448 6.372 23.5088 7.888 23.5088 9.624C23.5088 11.384 23.2368 12.916 22.6928 14.22C22.1568 15.516 21.3688 16.52 20.3288 17.232C19.2888 17.936 18.0368 18.288 16.5728 18.288ZM16.5728 15.72C17.2848 15.72 17.9208 15.492 18.4808 15.036C19.0488 14.58 19.4968 13.888 19.8248 12.96C20.1528 12.032 20.3168 10.896 20.3168 9.552C20.3168 7.576 19.9808 6.072 19.3088 5.04C18.6448 4 17.7088 3.48 16.5008 3.48C15.3248 3.48 14.4128 4 13.7648 5.04C13.1248 6.072 12.8048 7.584 12.8048 9.576C12.8048 10.936 12.9568 12.076 13.2608 12.996C13.5728 13.908 14.0088 14.592 14.5688 15.048C15.1368 15.496 15.8048 15.72 16.5728 15.72ZM33.3297 18L29.0337 11.952V18H25.9857V1.272H30.6417C34.6097 1.272 36.5937 3.048 36.5937 6.6C36.5937 7.392 36.4657 8.172 36.2097 8.94C35.9537 9.7 35.5337 10.376 34.9497 10.968C34.3737 11.56 33.6337 11.968 32.7297 12.192L37.0497 18H33.3297ZM30.3057 10.44C30.9857 10.44 31.5657 10.28 32.0457 9.96C32.5337 9.632 32.9017 9.2 33.1497 8.664C33.3977 8.12 33.5217 7.528 33.5217 6.888C33.5217 5.784 33.2657 4.972 32.7537 4.452C32.2497 3.932 31.4097 3.672 30.2337 3.672H29.0337V10.44H30.3057ZM48.5973 3.984H44.7333V18H41.6373V3.984H37.7733V1.272H48.5973V3.984ZM56.0926 18.312C54.2766 18.312 52.8286 17.828 51.7486 16.86C50.6766 15.884 50.1406 14.272 50.1406 12.024V1.272H53.2606V12.36C53.2606 13.624 53.5366 14.496 54.0886 14.976C54.6486 15.456 55.3006 15.696 56.0446 15.696C56.7966 15.696 57.4366 15.46 57.9646 14.988C58.4926 14.516 58.7566 13.64 58.7566 12.36V1.272H61.8766V12.024C61.8766 14.272 61.3526 15.884 60.3046 16.86C59.2566 17.828 57.8526 18.312 56.0926 18.312ZM76.8308 1.272V18.336H76.5908L68.5748 9.192L67.8308 8.232L67.9508 10.56V18H64.9988V0.983999H65.2628L73.1588 10.2L73.9988 11.292L73.8788 9V1.272H76.8308ZM89.53 15.288V18H80.314V1.272H89.05V3.888H83.314V7.8H87.874V10.344H83.314V15.288H89.53Z" fill="#B0B0B0"/>
<path d="M3.088 3.912V3.412H2.588V3.912H3.088ZM3.088 8.304H2.588V8.804H3.088V8.304ZM8.032 8.304H8.532V7.804H8.032V8.304ZM8.032 10.992V11.492H8.532V10.992H8.032ZM3.088 10.992V10.492H2.588V10.992H3.088ZM3.088 18V18.5H3.588V18H3.088ZM0.0160002 18H-0.484V18.5H0.0160002V18ZM0.0160002 1.272V0.771999H-0.484V1.272H0.0160002ZM8.752 1.272H9.252V0.771999H8.752V1.272ZM8.752 3.912V4.412H9.252V3.912H8.752ZM2.588 3.912V8.304H3.588V3.912H2.588ZM3.088 8.804H8.032V7.804H3.088V8.804ZM7.532 8.304V10.992H8.532V8.304H7.532ZM8.032 10.492H3.088V11.492H8.032V10.492ZM2.588 10.992V18H3.588V10.992H2.588ZM3.088 17.5H0.0160002V18.5H3.088V17.5ZM0.516 18V1.272H-0.484V18H0.516ZM0.0160002 1.772H8.752V0.771999H0.0160002V1.772ZM8.252 1.272V3.912H9.252V1.272H8.252ZM8.752 3.412H3.088V4.412H8.752V3.412ZM12.7688 17.232L12.4878 17.6456L12.49 17.647L12.7688 17.232ZM10.3928 14.22L9.93036 14.4101L9.93077 14.4111L10.3928 14.22ZM10.3808 5.064L9.91835 4.87391L9.91777 4.87535L10.3808 5.064ZM12.7328 2.052L13.0146 2.46505L13.0153 2.46457L12.7328 2.052ZM20.3648 2.064L20.0817 2.47612L20.0838 2.47758L20.3648 2.064ZM22.7168 5.076L22.2528 5.26219L22.2538 5.26465L22.7168 5.076ZM22.6928 14.22L22.2314 14.0275L22.2308 14.0289L22.6928 14.22ZM20.3288 17.232L20.6091 17.6461L20.6113 17.6446L20.3288 17.232ZM18.4808 15.036L18.1678 14.6461L18.1651 14.6483L18.4808 15.036ZM19.3088 5.04L18.8874 5.30908L18.8898 5.31284L19.3088 5.04ZM13.7648 5.04L13.3404 4.77559L13.3399 4.77648L13.7648 5.04ZM13.2608 12.996L12.786 13.1529L12.7877 13.1578L13.2608 12.996ZM14.5688 15.048L14.2531 15.4358L14.2592 15.4406L14.5688 15.048ZM16.5728 17.788C15.166 17.788 13.9993 17.4563 13.0476 16.817L12.49 17.647C13.6343 18.4157 15.0036 18.788 16.5728 18.788V17.788ZM13.0498 16.8184C12.0911 16.1671 11.3577 15.2447 10.8549 14.0289L9.93077 14.4111C10.5 15.7873 11.3505 16.8729 12.4878 17.6456L13.0498 16.8184ZM10.8553 14.0299C10.3494 12.7992 10.0888 11.3344 10.0888 9.624H9.08881C9.08881 11.4336 9.36424 13.0328 9.93036 14.4101L10.8553 14.0299ZM10.0888 9.624C10.0888 7.9293 10.3455 6.47598 10.8439 5.25265L9.91777 4.87535C9.36016 6.24402 9.08881 7.8307 9.08881 9.624H10.0888ZM10.8433 5.25409C11.3471 4.02847 12.0734 3.1071 13.0146 2.46504L12.451 1.63895C11.3282 2.4049 10.4866 3.49153 9.91836 4.87391L10.8433 5.25409ZM13.0153 2.46457C13.9588 1.81861 15.1123 1.484 16.5008 1.484V0.483999C14.9454 0.483999 13.5868 0.861391 12.4504 1.63942L13.0153 2.46457ZM16.5008 1.484C17.9485 1.484 19.1326 1.82408 20.0817 2.47611L20.6479 1.65189C19.501 0.863919 18.1092 0.483999 16.5008 0.483999V1.484ZM20.0838 2.47758C21.0412 3.12801 21.7659 4.04868 22.2528 5.26219L23.1809 4.88981C22.6278 3.51132 21.7844 2.42399 20.6458 1.65042L20.0838 2.47758ZM22.2538 5.26465C22.7523 6.48823 23.0088 7.93763 23.0088 9.624H24.0088C24.0088 7.83837 23.7374 6.25577 23.1799 4.88735L22.2538 5.26465ZM23.0088 9.624C23.0088 11.3336 22.7445 12.7975 22.2314 14.0275L23.1543 14.4125C23.7291 13.0345 24.0088 11.4344 24.0088 9.624H23.0088ZM22.2308 14.0289C21.7275 15.2457 20.9974 16.1683 20.0464 16.8194L20.6113 17.6446C21.7402 16.8717 22.5861 15.7863 23.1549 14.4111L22.2308 14.0289ZM20.0485 16.8179C19.1043 17.4571 17.9539 17.788 16.5728 17.788V18.788C18.1197 18.788 19.4733 18.4149 20.6091 17.6461L20.0485 16.8179ZM16.5728 16.22C17.4016 16.22 18.1487 15.9512 18.7965 15.4237L18.1651 14.6483C17.6929 15.0328 17.168 15.22 16.5728 15.22V16.22ZM18.7938 15.4259C19.4556 14.8946 19.9478 14.1125 20.2962 13.1266L19.3534 12.7934C19.0458 13.6635 18.642 14.2654 18.1678 14.6461L18.7938 15.4259ZM20.2962 13.1266C20.6487 12.1295 20.8168 10.9335 20.8168 9.552H19.8168C19.8168 10.8585 19.657 11.9345 19.3534 12.7934L20.2962 13.1266ZM20.8168 9.552C20.8168 7.53248 20.4757 5.91576 19.7278 4.76716L18.8898 5.31284C19.4859 6.22824 19.8168 7.61952 19.8168 9.552H20.8168ZM19.7302 4.77093C18.9768 3.59081 17.8839 2.98 16.5008 2.98V3.98C17.5337 3.98 18.3128 4.40919 18.8874 5.30907L19.7302 4.77093ZM16.5008 2.98C15.1436 2.98 14.0751 3.59652 13.3404 4.77559L14.1892 5.30441C14.7505 4.40348 15.5061 3.98 16.5008 3.98V2.98ZM13.3399 4.77648C12.6287 5.92331 12.3048 7.54446 12.3048 9.576H13.3048C13.3048 7.62354 13.6209 6.22069 14.1897 5.30352L13.3399 4.77648ZM12.3048 9.576C12.3048 10.9695 12.4601 12.1664 12.7861 13.1529L13.7356 12.8391C13.4535 11.9856 13.3048 10.9025 13.3048 9.576H12.3048ZM12.7877 13.1578C13.1202 14.1295 13.6001 14.904 14.2531 15.4357L14.8845 14.6603C14.4176 14.28 14.0255 13.6865 13.7339 12.8342L12.7877 13.1578ZM14.2592 15.4406C14.921 15.9626 15.6999 16.22 16.5728 16.22V15.22C15.9097 15.22 15.3526 15.0294 14.8785 14.6554L14.2592 15.4406ZM33.3297 18L32.9221 18.2895L33.0715 18.5H33.3297V18ZM29.0337 11.952L29.4413 11.6625L28.5337 10.3847V11.952H29.0337ZM29.0337 18V18.5H29.5337V18H29.0337ZM25.9857 18H25.4857V18.5H25.9857V18ZM25.9857 1.272V0.771999H25.4857V1.272H25.9857ZM36.2097 8.94L36.6835 9.09961L36.684 9.09811L36.2097 8.94ZM34.9497 10.968L34.5937 10.6169L34.5913 10.6193L34.9497 10.968ZM32.7297 12.192L32.6094 11.7067L31.88 11.8874L32.3285 12.4904L32.7297 12.192ZM37.0497 18V18.5H38.0447L37.4509 17.7016L37.0497 18ZM32.0457 9.96L32.323 10.376L32.3246 10.375L32.0457 9.96ZM33.1497 8.664L33.6035 8.87396L33.6046 8.8714L33.1497 8.664ZM32.7537 4.452L32.3946 4.8L32.3974 4.8028L32.7537 4.452ZM29.0337 3.672V3.172H28.5337V3.672H29.0337ZM29.0337 10.44H28.5337V10.94H29.0337V10.44ZM33.7373 17.7105L29.4413 11.6625L28.6261 12.2415L32.9221 18.2895L33.7373 17.7105ZM28.5337 11.952V18H29.5337V11.952H28.5337ZM29.0337 17.5H25.9857V18.5H29.0337V17.5ZM26.4857 18V1.272H25.4857V18H26.4857ZM25.9857 1.772H30.6417V0.771999H25.9857V1.772ZM30.6417 1.772C32.5614 1.772 33.9079 2.20282 34.7722 2.97654C35.626 3.74083 36.0937 4.91627 36.0937 6.6H37.0937C37.0937 4.73172 36.5694 3.24317 35.4392 2.23146C34.3195 1.22918 32.6899 0.771999 30.6417 0.771999V1.772ZM36.0937 6.6C36.0937 7.33706 35.9747 8.06372 35.7353 8.78189L36.684 9.09811C36.9566 8.28028 37.0937 7.44693 37.0937 6.6H36.0937ZM35.7358 8.78039C35.505 9.46573 35.1264 10.0769 34.5937 10.6169L35.3056 11.3191C35.9409 10.6751 36.4024 9.93427 36.6835 9.09961L35.7358 8.78039ZM34.5913 10.6193C34.0884 11.1362 33.4347 11.5022 32.6094 11.7067L32.8499 12.6773C33.8326 12.4338 34.659 11.9838 35.3081 11.3167L34.5913 10.6193ZM32.3285 12.4904L36.6485 18.2984L37.4509 17.7016L33.1309 11.8936L32.3285 12.4904ZM37.0497 17.5H33.3297V18.5H37.0497V17.5ZM30.3057 10.94C31.0664 10.94 31.7471 10.76 32.323 10.376L31.7683 9.54397C31.3843 9.80002 30.905 9.94 30.3057 9.94V10.94ZM32.3246 10.375C32.8889 9.99569 33.3172 9.49262 33.6035 8.87396L32.6959 8.45404C32.4862 8.90738 32.1785 9.26831 31.7668 9.54502L32.3246 10.375ZM33.6046 8.8714C33.8844 8.25778 34.0217 7.59443 34.0217 6.888H33.0217C33.0217 7.46157 32.911 7.98222 32.6947 8.45659L33.6046 8.8714ZM34.0217 6.888C34.0217 5.71888 33.7519 4.75315 33.11 4.1012L32.3974 4.8028C32.7795 5.19085 33.0217 5.84912 33.0217 6.888H34.0217ZM33.1127 4.10401C32.4701 3.44095 31.4639 3.172 30.2337 3.172V4.172C31.3555 4.172 32.0293 4.42305 32.3947 4.79999L33.1127 4.10401ZM30.2337 3.172H29.0337V4.172H30.2337V3.172ZM28.5337 3.672V10.44H29.5337V3.672H28.5337ZM29.0337 10.94H30.3057V9.94H29.0337V10.94ZM48.5973 3.984V4.484H49.0973V3.984H48.5973ZM44.7333 3.984V3.484H44.2333V3.984H44.7333ZM44.7333 18V18.5H45.2333V18H44.7333ZM41.6373 18H41.1373V18.5H41.6373V18ZM41.6373 3.984H42.1373V3.484H41.6373V3.984ZM37.7733 3.984H37.2733V4.484H37.7733V3.984ZM37.7733 1.272V0.771999H37.2733V1.272H37.7733ZM48.5973 1.272H49.0973V0.771999H48.5973V1.272ZM48.5973 3.484H44.7333V4.484H48.5973V3.484ZM44.2333 3.984V18H45.2333V3.984H44.2333ZM44.7333 17.5H41.6373V18.5H44.7333V17.5ZM42.1373 18V3.984H41.1373V18H42.1373ZM41.6373 3.484H37.7733V4.484H41.6373V3.484ZM38.2733 3.984V1.272H37.2733V3.984H38.2733ZM37.7733 1.772H48.5973V0.771999H37.7733V1.772ZM48.0973 1.272V3.984H49.0973V1.272H48.0973ZM51.7486 16.86L51.4119 17.2297L51.4148 17.2323L51.7486 16.86ZM50.1406 1.272V0.771999H49.6406V1.272H50.1406ZM53.2606 1.272H53.7606V0.771999H53.2606V1.272ZM54.0886 14.976L53.7605 15.3533L53.7632 15.3556L54.0886 14.976ZM57.9646 14.988L57.6313 14.6152L57.6313 14.6152L57.9646 14.988ZM58.7566 1.272V0.771999H58.2566V1.272H58.7566ZM61.8766 1.272H62.3766V0.771999H61.8766V1.272ZM60.3046 16.86L60.6438 17.2273L60.6453 17.2259L60.3046 16.86ZM56.0926 17.812C54.3675 17.812 53.0491 17.3542 52.0823 16.4877L51.4148 17.2323C52.608 18.3018 54.1856 18.812 56.0926 18.812V17.812ZM52.0852 16.4903C51.1629 15.6506 50.6406 14.2079 50.6406 12.024H49.6406C49.6406 14.3361 50.1902 16.1174 51.412 17.2297L52.0852 16.4903ZM50.6406 12.024V1.272H49.6406V12.024H50.6406ZM50.1406 1.772H53.2606V0.771999H50.1406V1.772ZM52.7606 1.272V12.36H53.7606V1.272H52.7606ZM52.7606 12.36C52.7606 13.6685 53.0414 14.728 53.7605 15.3533L54.4167 14.5987C54.0317 14.264 53.7606 13.5795 53.7606 12.36H52.7606ZM53.7632 15.3556C54.4147 15.914 55.1824 16.196 56.0446 16.196V15.196C55.4188 15.196 54.8825 14.998 54.414 14.5964L53.7632 15.3556ZM56.0446 16.196C56.9112 16.196 57.6721 15.9201 58.2978 15.3608L57.6313 14.6152C57.201 14.9999 56.6819 15.196 56.0446 15.196V16.196ZM58.2978 15.3608C58.9914 14.7407 59.2566 13.6758 59.2566 12.36H58.2566C58.2566 13.6042 57.9937 14.2913 57.6313 14.6152L58.2978 15.3608ZM59.2566 12.36V1.272H58.2566V12.36H59.2566ZM58.7566 1.772H61.8766V0.771999H58.7566V1.772ZM61.3766 1.272V12.024H62.3766V1.272H61.3766ZM61.3766 12.024C61.3766 14.2108 60.8648 15.655 59.9638 16.4941L60.6453 17.2259C61.8403 16.113 62.3766 14.3332 62.3766 12.024H61.3766ZM59.9653 16.4927C59.0301 17.3566 57.7576 17.812 56.0926 17.812V18.812C57.9475 18.812 59.4831 18.2994 60.6438 17.2273L59.9653 16.4927ZM76.8308 1.272H77.3308V0.771999H76.8308V1.272ZM76.8308 18.336V18.836H77.3308V18.336H76.8308ZM76.5908 18.336L76.2148 18.6656L76.3642 18.836H76.5908V18.336ZM68.5748 9.192L68.1796 9.49829L68.1889 9.51023L68.1988 9.5216L68.5748 9.192ZM67.8308 8.232L68.226 7.92571L67.2494 6.66557L67.3315 8.25774L67.8308 8.232ZM67.9508 10.56H68.4508V10.5471L68.4501 10.5343L67.9508 10.56ZM67.9508 18V18.5H68.4508V18H67.9508ZM64.9988 18H64.4988V18.5H64.9988V18ZM64.9988 0.983999V0.483999H64.4988V0.983999H64.9988ZM65.2628 0.983999L65.6425 0.658685L65.4928 0.483999H65.2628V0.983999ZM73.1588 10.2L73.5551 9.89514L73.5471 9.8847L73.5385 9.87469L73.1588 10.2ZM73.9988 11.292L73.6025 11.5969L74.5821 12.8704L74.4981 11.2659L73.9988 11.292ZM73.8788 9H73.3788V9.01308L73.3795 9.02614L73.8788 9ZM73.8788 1.272V0.771999H73.3788V1.272H73.8788ZM76.3308 1.272V18.336H77.3308V1.272H76.3308ZM76.8308 17.836H76.5908V18.836H76.8308V17.836ZM76.9668 18.0064L68.9508 8.8624L68.1988 9.5216L76.2148 18.6656L76.9668 18.0064ZM68.97 8.88571L68.226 7.92571L67.4356 8.53829L68.1796 9.49829L68.97 8.88571ZM67.3315 8.25774L67.4515 10.5857L68.4501 10.5343L68.3301 8.20626L67.3315 8.25774ZM67.4508 10.56V18H68.4508V10.56H67.4508ZM67.9508 17.5H64.9988V18.5H67.9508V17.5ZM65.4988 18V0.983999H64.4988V18H65.4988ZM64.9988 1.484H65.2628V0.483999H64.9988V1.484ZM64.8831 1.30931L72.7791 10.5253L73.5385 9.87469L65.6425 0.658685L64.8831 1.30931ZM72.7625 10.5049L73.6025 11.5969L74.3951 10.9871L73.5551 9.89514L72.7625 10.5049ZM74.4981 11.2659L74.3781 8.97386L73.3795 9.02614L73.4995 11.3181L74.4981 11.2659ZM74.3788 9V1.272H73.3788V9H74.3788ZM73.8788 1.772H76.8308V0.771999H73.8788V1.772ZM89.53 15.288H90.03V14.788H89.53V15.288ZM89.53 18V18.5H90.03V18H89.53ZM80.314 18H79.814V18.5H80.314V18ZM80.314 1.272V0.771999H79.814V1.272H80.314ZM89.05 1.272H89.55V0.771999H89.05V1.272ZM89.05 3.888V4.388H89.55V3.888H89.05ZM83.314 3.888V3.388H82.814V3.888H83.314ZM83.314 7.8H82.814V8.3H83.314V7.8ZM87.874 7.8H88.374V7.3H87.874V7.8ZM87.874 10.344V10.844H88.374V10.344H87.874ZM83.314 10.344V9.844H82.814V10.344H83.314ZM83.314 15.288H82.814V15.788H83.314V15.288ZM89.03 15.288V18H90.03V15.288H89.03ZM89.53 17.5H80.314V18.5H89.53V17.5ZM80.814 18V1.272H79.814V18H80.814ZM80.314 1.772H89.05V0.771999H80.314V1.772ZM88.55 1.272V3.888H89.55V1.272H88.55ZM89.05 3.388H83.314V4.388H89.05V3.388ZM82.814 3.888V7.8H83.814V3.888H82.814ZM83.314 8.3H87.874V7.3H83.314V8.3ZM87.374 7.8V10.344H88.374V7.8H87.374ZM87.874 9.844H83.314V10.844H87.874V9.844ZM82.814 10.344V15.288H83.814V10.344H82.814ZM83.314 15.788H89.53V14.788H83.314V15.788Z" fill="#B0B0B0" mask="url(#path-1-outside-1_3_9)"/>
</svg>
